<?xml version="1.0" encoding="UTF-8" standalone="no"?>
<!DOCTYPE svg PUBLIC "-//W3C//DTD SVG 1.1//EN"
 "http://www.w3.org/Graphics/SVG/1.1/DTD/svg11.dtd">
<!-- Generated by graphviz version 2.38.0 (20140413.2041)
 -->
<!-- Title: G Pages: 1 -->
<svg width="850pt" height="320pt"
 viewBox="0.00 0.00 850.00 320.00" xmlns="http://www.w3.org/2000/svg" xmlns:xlink="http://www.w3.org/1999/xlink">
<g id="graph0" class="graph" transform="scale(1 1) rotate(0) translate(4 316)">
<title>G</title>
<polygon fill="white" stroke="none" points="-4,4 -4,-316 846,-316 846,4 -4,4"/>
<!-- 1 -->
<g id="node1" class="node"><title>1</title>
<ellipse fill="lightgrey" stroke="black" cx="48.5" cy="-216" rx="48.5" ry="18"/>
<text text-anchor="middle" x="48.5" y="-212.6" font-family="sans-serif" font-size="13.00">Lady Sabine</text>
</g>
<!-- 2 -->
<g id="node2" class="node"><title>2</title>
<ellipse fill="lightgrey" stroke="black" cx="197.5" cy="-139" rx="48.5" ry="18"/>
<text text-anchor="middle" x="197.5" y="-135.6" font-family="sans-serif" font-size="13.00">Sir Karl</text>
</g>
<!-- 1&#45;&#45;2 -->
<g id="edge1" class="edge"><title>1&#45;&#45;2</title>
<path fill="none" stroke="black" d="M77.4956,-201.336C103.652,-187.634 142.486,-167.293 168.609,-153.61"/>
<text text-anchor="middle" x="123" y="-182" font-family="sans-serif" font-size="10.00">100</text>
</g>
<!-- 3 -->
<g id="node3" class="node"><title>3</title>
<ellipse fill="lightgrey" stroke="black" cx="346.5" cy="-80" rx="48.5" ry="18"/>
<text text-anchor="middle" x="346.5" y="-76.6" font-family="sans-serif" font-size="13.00">Dona Fiona</text>
</g>
<!-- 1&#45;&#45;3 -->
<g id="edge2" class="edge"><title>1&#45;&#45;3</title>
<path fill="none" stroke="black" d="M58.9628,-198.311C74.0955,-172.002 106.424,-123.274 149,-101 195.816,-76.5079 257.415,-73.8835 299.07,-75.6803"/>
<text text-anchor="middle" x="197.5" y="-104" font-family="sans-serif" font-size="10.00">100</text>
</g>
<!-- 4 -->
<g id="node4" class="node"><title>4</title>
<ellipse fill="lightgrey" stroke="black" cx="495.5" cy="-132" rx="48.5" ry="18"/>
<text text-anchor="middle" x="495.5" y="-128.6" font-family="sans-serif" font-size="13.00">Lord Galen</text>
</g>
<!-- 1&#45;&#45;4 -->
<g id="edge3" class="edge"><title>1&#45;&#45;4</title>
<path fill="none" stroke="black" d="M96.6774,-218.19C170.082,-220.037 315.04,-217.375 429,-176 446.126,-169.782 463.136,-158.149 475.529,-148.405"/>
<text text-anchor="middle" x="272" y="-214" font-family="sans-serif" font-size="10.00">100</text>
</g>
<!-- 5 -->
<g id="node5" class="node"><title>5</title>
<ellipse fill="lightgrey" stroke="black" cx="644.5" cy="-161" rx="48.5" ry="18"/>
<text text-anchor="middle" x="644.5" y="-157.6" font-family="sans-serif" font-size="13.00">Mistress Patrice</text>
</g>
<!-- 1&#45;&#45;5 -->
<g id="edge4" class="edge"><title>1&#45;&#45;5</title>
<path fill="none" stroke="black" d="M77.6898,-230.428C106.697,-243.919 153.58,-262 196.5,-262 196.5,-262 196.5,-262 496.5,-262 554.713,-262 606.704,-207.53 630.216,-178.593"/>
<text text-anchor="middle" x="346.5" y="-265" font-family="sans-serif" font-size="10.00">100</text>
</g>
<!-- 6 -->
<g id="node6" class="node"><title>6</title>
<ellipse fill="lightgrey" stroke="black" cx="793.5" cy="-114" rx="48.5" ry="18"/>
<text text-anchor="middle" x="793.5" y="-110.6" font-family="sans-serif" font-size="13.00">Bye</text>
</g>
<!-- 1&#45;&#45;6 -->
<g id="edge5" class="edge"><title>1&#45;&#45;6</title>
<path fill="none" stroke="black" d="M65.7981,-233.201C91.1828,-258.038 142.846,-301 196.5,-301 196.5,-301 196.5,-301 645.5,-301 730.981,-301 774.335,-178.735 787.8,-131.93"/>
<text text-anchor="middle" x="421" y="-304" font-family="sans-serif" font-size="10.00">100</text>
</g>
<!-- 2&#45;&#45;3 -->
<g id="edge6" class="edge"><title>2&#45;&#45;3</title>
<path fill="none" stroke="black" d="M231.124,-125.906C255.484,-116.129 288.629,-102.826 312.967,-93.0574"/>
<text text-anchor="middle" x="272" y="-114" font-family="sans-serif" font-size="10.00">100</text>
</g>
<!-- 2&#45;&#45;4 -->
<g id="edge7" class="edge"><title>2&#45;&#45;4</title>
<path fill="none" stroke="black" d="M246.058,-137.875C301.294,-136.569 391.874,-134.427 447.061,-133.122"/>
<text text-anchor="middle" x="346.5" y="-139" font-family="sans-serif" font-size="10.00">100</text>
</g>
<!-- 2&#45;&#45;5 -->
<g id="edge8" class="edge"><title>2&#45;&#45;5</title>
<path fill="none" stroke="black" d="M240.303,-147.543C248.149,-148.895 256.303,-150.131 264,-151 395.698,-165.871 429.477,-160.272 562,-162 572.895,-162.142 584.609,-162.108 595.664,-161.991"/>
<text text-anchor="middle" x="421" y="-164" font-family="sans-serif" font-size="10.00">100</text>
</g>
<!-- 2&#45;&#45;6 -->
<g id="edge9" class="edge"><title>2&#45;&#45;6</title>
<path fill="none" stroke="black" d="M230.796,-125.706C236.114,-122.871 241.389,-119.622 246,-116 299.414,-74.042 277.577,-3.55271e-015 345.5,-0 345.5,-0 345.5,-0 645.5,-0 707.508,-0 759.192,-64.125 781.158,-96.1875"/>
<text text-anchor="middle" x="495.5" y="-3" font-family="sans-serif" font-size="10.00">100</text>
</g>
<!-- 3&#45;&#45;4 -->
<g id="edge10" class="edge"><title>3&#45;&#45;4</title>
<path fill="none" stroke="black" d="M382.337,-92.3233C405.77,-100.612 436.533,-111.494 459.913,-119.765"/>
<text text-anchor="middle" x="421" y="-110" font-family="sans-serif" font-size="10.00">100</text>
</g>
<!-- 3&#45;&#45;5 -->
<g id="edge11" class="edge"><title>3&#45;&#45;5</title>
<path fill="none" stroke="black" d="M393.796,-75.3916C434.813,-73.1195 495.536,-74.2659 544,-94 572.039,-105.417 570.62,-121.495 596,-138 601.146,-141.347 606.852,-144.517 612.473,-147.374"/>
<text text-anchor="middle" x="495.5" y="-97" font-family="sans-serif" font-size="10.00">100</text>
</g>
<!-- 3&#45;&#45;6 -->
<g id="edge12" class="edge"><title>3&#45;&#45;6</title>
<path fill="none" stroke="black" d="M390.73,-72.454C398.137,-71.4326 405.774,-70.5484 413,-70 420.091,-69.4618 421.889,-69.9691 429,-70 480.113,-70.2222 493.094,-66.4051 544,-71 617.694,-77.6518 702.387,-94.2608 751.44,-104.782"/>
<text text-anchor="middle" x="570" y="-77" font-family="sans-serif" font-size="10.00">100</text>
</g>
<!-- 4&#45;&#45;5 -->
<g id="edge13" class="edge"><title>4&#45;&#45;5</title>
<path fill="none" stroke="black" d="M538.624,-140.31C558.307,-144.193 581.686,-148.805 601.37,-152.689"/>
<text text-anchor="middle" x="570" y="-150" font-family="sans-serif" font-size="10.00">100</text>
</g>
<!-- 4&#45;&#45;6 -->
<g id="edge14" class="edge"><title>4&#45;&#45;6</title>
<path fill="none" stroke="black" d="M542.536,-127.406C559.348,-125.842 578.522,-124.19 596,-123 646.766,-119.543 705.004,-117.061 744.818,-115.591"/>
<text text-anchor="middle" x="644.5" y="-126" font-family="sans-serif" font-size="10.00">100</text>
</g>
<!-- 5&#45;&#45;6 -->
<g id="edge15" class="edge"><title>5&#45;&#45;6</title>
<path fill="none" stroke="black" d="M681.837,-149.382C704.538,-142.124 733.657,-132.814 756.326,-125.566"/>
<text text-anchor="middle" x="719" y="-141" font-family="sans-serif" font-size="10.00">100</text>
</g>
</g>
</svg>
