<?xml version="1.0" encoding="UTF-8" standalone="no"?>
<!DOCTYPE svg PUBLIC "-//W3C//DTD SVG 1.1//EN"
 "http://www.w3.org/Graphics/SVG/1.1/DTD/svg11.dtd">
<!-- Generated by graphviz version 2.38.0 (20140413.2041)
 -->
<!-- Title: G Pages: 1 -->
<svg width="484pt" height="320pt"
 viewBox="0.00 0.00 484.00 320.00" xmlns="http://www.w3.org/2000/svg" xmlns:xlink="http://www.w3.org/1999/xlink">
<g id="graph0" class="graph" transform="scale(1 1) rotate(0) translate(4 316)">
<title>G</title>
<polygon fill="white" stroke="none" points="-4,4 -4,-316 480,-316 480,4 -4,4"/>
<!-- 1 -->
<g id="node1" class="node"><title>1</title>
<ellipse fill="lightgrey" stroke="black" cx="18" cy="-216" rx="18" ry="18"/>
<text text-anchor="middle" x="18" y="-212.6" font-family="sans-serif" font-size="13.00">1</text>
</g>
<!-- 2 -->
<g id="node2" class="node"><title>2</title>
<ellipse fill="lightgrey" stroke="black" cx="106" cy="-139" rx="18" ry="18"/>
<text text-anchor="middle" x="106" y="-135.6" font-family="sans-serif" font-size="13.00">2</text>
</g>
<!-- 1&#45;&#45;2 -->
<g id="edge1" class="edge"><title>1&#45;&#45;2</title>
<path fill="none" stroke="red" stroke-width="3" d="M32.0615,-204.305C48.3197,-189.749 75.9135,-165.043 92.0973,-150.552"/>
<text text-anchor="middle" x="62" y="-187" font-family="sans-serif" font-size="10.00" fill="red">100</text>
</g>
<!-- 3 -->
<g id="node3" class="node"><title>3</title>
<ellipse fill="lightgrey" stroke="black" cx="194" cy="-80" rx="18" ry="18"/>
<text text-anchor="middle" x="194" y="-76.6" font-family="sans-serif" font-size="13.00">3</text>
</g>
<!-- 1&#45;&#45;3 -->
<g id="edge2" class="edge"><title>1&#45;&#45;3</title>
<path fill="none" stroke="black" d="M24.2803,-198.847C33.0998,-173.237 53.3615,-125.41 88,-101 114.441,-82.3666 153.446,-79.3615 175.721,-79.3482"/>
<text text-anchor="middle" x="106" y="-104" font-family="sans-serif" font-size="10.00">100</text>
</g>
<!-- 4 -->
<g id="node4" class="node"><title>4</title>
<ellipse fill="lightgrey" stroke="black" cx="282" cy="-132" rx="18" ry="18"/>
<text text-anchor="middle" x="282" y="-128.6" font-family="sans-serif" font-size="13.00">4</text>
</g>
<!-- 1&#45;&#45;4 -->
<g id="edge3" class="edge"><title>1&#45;&#45;4</title>
<path fill="none" stroke="black" d="M36.0872,-217.082C75.9379,-218.799 176.889,-218.423 246,-177 257.545,-170.08 266.702,-157.812 272.749,-147.832"/>
<text text-anchor="middle" x="150" y="-214" font-family="sans-serif" font-size="10.00">100</text>
</g>
<!-- 5 -->
<g id="node5" class="node"><title>5</title>
<ellipse fill="lightgrey" stroke="black" cx="370" cy="-161" rx="18" ry="18"/>
<text text-anchor="middle" x="370" y="-157.6" font-family="sans-serif" font-size="13.00">5</text>
</g>
<!-- 1&#45;&#45;5 -->
<g id="edge4" class="edge"><title>1&#45;&#45;5</title>
<path fill="none" stroke="black" d="M31.571,-227.846C47.401,-241.476 76.0459,-262 105,-262 105,-262 105,-262 283,-262 326.527,-262 352.659,-206.949 363.356,-178.133"/>
<text text-anchor="middle" x="194" y="-265" font-family="sans-serif" font-size="10.00">100</text>
</g>
<!-- 6 -->
<g id="node6" class="node"><title>6</title>
<ellipse fill="lightgrey" stroke="black" cx="458" cy="-114" rx="18" ry="18"/>
<text text-anchor="middle" x="458" y="-110.6" font-family="sans-serif" font-size="13.00">6</text>
</g>
<!-- 1&#45;&#45;6 -->
<g id="edge5" class="edge"><title>1&#45;&#45;6</title>
<path fill="none" stroke="black" d="M26.4154,-232.389C38.8449,-257.089 66.3736,-301 105,-301 105,-301 105,-301 371,-301 444.791,-301 455.494,-179.325 456.874,-132.271"/>
<text text-anchor="middle" x="238" y="-304" font-family="sans-serif" font-size="10.00">100</text>
</g>
<!-- 2&#45;&#45;3 -->
<g id="edge6" class="edge"><title>2&#45;&#45;3</title>
<path fill="none" stroke="black" d="M121.231,-128.678C127.557,-124.13 135.117,-118.751 142,-114 154.261,-105.537 168.364,-96.1622 178.628,-89.4037"/>
<text text-anchor="middle" x="150" y="-117" font-family="sans-serif" font-size="10.00">100</text>
</g>
<!-- 2&#45;&#45;4 -->
<g id="edge7" class="edge"><title>2&#45;&#45;4</title>
<path fill="none" stroke="black" d="M124.001,-138.316C157.265,-136.978 230.61,-134.027 263.93,-132.687"/>
<text text-anchor="middle" x="194" y="-139" font-family="sans-serif" font-size="10.00">100</text>
</g>
<!-- 2&#45;&#45;5 -->
<g id="edge8" class="edge"><title>2&#45;&#45;5</title>
<path fill="none" stroke="black" d="M123.14,-145.502C128.99,-147.598 135.707,-149.711 142,-151 218.84,-166.737 239.618,-161.109 318,-164 325.106,-164.262 326.895,-164.304 334,-164 339.849,-163.75 346.234,-163.265 351.929,-162.758"/>
<text text-anchor="middle" x="238" y="-165" font-family="sans-serif" font-size="10.00">100</text>
</g>
<!-- 2&#45;&#45;6 -->
<g id="edge9" class="edge"><title>2&#45;&#45;6</title>
<path fill="none" stroke="black" d="M117.655,-125.049C119.811,-122.1 122.021,-118.978 124,-116 157.203,-66.0399 133.013,-3.55271e-015 193,-0 193,-0 193,-0 371,-0 418.848,-0 443.43,-64.7947 452.632,-96.6859"/>
<text text-anchor="middle" x="282" y="-3" font-family="sans-serif" font-size="10.00">100</text>
</g>
<!-- 3&#45;&#45;4 -->
<g id="edge10" class="edge"><title>3&#45;&#45;4</title>
<path fill="none" stroke="red" stroke-width="3" d="M209.98,-89.0577C225.765,-98.602 250.472,-113.541 266.192,-123.046"/>
<text text-anchor="middle" x="238" y="-113" font-family="sans-serif" font-size="10.00" fill="red">100</text>
</g>
<!-- 3&#45;&#45;5 -->
<g id="edge11" class="edge"><title>3&#45;&#45;5</title>
<path fill="none" stroke="black" d="M212.303,-79.0738C233.924,-78.6207 271.54,-80.1951 300,-94 325.089,-106.17 346.808,-130.974 358.877,-146.749"/>
<text text-anchor="middle" x="282" y="-97" font-family="sans-serif" font-size="10.00">100</text>
</g>
<!-- 3&#45;&#45;6 -->
<g id="edge12" class="edge"><title>3&#45;&#45;6</title>
<path fill="none" stroke="black" d="M212.038,-77.0715C217.731,-76.2253 224.122,-75.4177 230,-75 237.093,-74.4959 238.892,-74.8027 246,-75 270.028,-75.6669 276.2,-74.6351 300,-78 351.778,-85.3205 411.685,-101.155 440.216,-109.159"/>
<text text-anchor="middle" x="326" y="-86" font-family="sans-serif" font-size="10.00">100</text>
</g>
<!-- 4&#45;&#45;5 -->
<g id="edge13" class="edge"><title>4&#45;&#45;5</title>
<path fill="none" stroke="black" d="M299.176,-137.455C314.454,-142.607 337.254,-150.295 352.604,-155.471"/>
<text text-anchor="middle" x="326" y="-152" font-family="sans-serif" font-size="10.00">100</text>
</g>
<!-- 4&#45;&#45;6 -->
<g id="edge14" class="edge"><title>4&#45;&#45;6</title>
<path fill="none" stroke="black" d="M299.989,-129.571C313.94,-127.628 334.224,-124.92 352,-123 382.923,-119.66 419.079,-116.787 439.882,-115.234"/>
<text text-anchor="middle" x="370" y="-126" font-family="sans-serif" font-size="10.00">100</text>
</g>
<!-- 5&#45;&#45;6 -->
<g id="edge15" class="edge"><title>5&#45;&#45;6</title>
<path fill="none" stroke="red" stroke-width="3" d="M386.375,-152.597C402.029,-144.042 426.153,-130.858 441.758,-122.33"/>
<text text-anchor="middle" x="414" y="-144" font-family="sans-serif" font-size="10.00" fill="red">100</text>
</g>
</g>
</svg>
