<?xml version="1.0" encoding="UTF-8" standalone="no"?>
<!DOCTYPE svg PUBLIC "-//W3C//DTD SVG 1.1//EN"
 "http://www.w3.org/Graphics/SVG/1.1/DTD/svg11.dtd">
<!-- Generated by graphviz version 2.38.0 (20140413.2041)
 -->
<!-- Title: G Pages: 1 -->
<svg width="449pt" height="320pt"
 viewBox="0.00 0.00 449.00 320.00" xmlns="http://www.w3.org/2000/svg" xmlns:xlink="http://www.w3.org/1999/xlink">
<g id="graph0" class="graph" transform="scale(1 1) rotate(0) translate(4 316)">
<title>G</title>
<polygon fill="white" stroke="none" points="-4,4 -4,-316 445,-316 445,4 -4,4"/>
<!-- 1 -->
<g id="node1" class="node"><title>1</title>
<ellipse fill="lightgrey" stroke="black" cx="18" cy="-216" rx="18" ry="18"/>
<text text-anchor="middle" x="18" y="-212.6" font-family="sans-serif" font-size="13.00">1</text>
</g>
<!-- 2 -->
<g id="node2" class="node"><title>2</title>
<ellipse fill="lightgrey" stroke="black" cx="96" cy="-139" rx="18" ry="18"/>
<text text-anchor="middle" x="96" y="-135.6" font-family="sans-serif" font-size="13.00">2</text>
</g>
<!-- 1&#45;&#45;2 -->
<g id="edge1" class="edge"><title>1&#45;&#45;2</title>
<path fill="none" stroke="black" d="M31.2107,-203.629C45.3931,-189.26 68.6501,-165.697 82.8196,-151.341"/>
<text text-anchor="middle" x="57" y="-182" font-family="sans-serif" font-size="10.00">0</text>
</g>
<!-- 3 -->
<g id="node3" class="node"><title>3</title>
<ellipse fill="lightgrey" stroke="black" cx="174" cy="-80" rx="18" ry="18"/>
<text text-anchor="middle" x="174" y="-76.6" font-family="sans-serif" font-size="13.00">3</text>
</g>
<!-- 1&#45;&#45;3 -->
<g id="edge2" class="edge"><title>1&#45;&#45;3</title>
<path fill="none" stroke="black" d="M22.9448,-198.561C29.6646,-173.025 45.8435,-125.811 78,-101 100.735,-83.4588 135.168,-79.9539 155.737,-79.5787"/>
<text text-anchor="middle" x="96" y="-104" font-family="sans-serif" font-size="10.00">0</text>
</g>
<!-- 4 -->
<g id="node4" class="node"><title>4</title>
<ellipse fill="lightgrey" stroke="black" cx="252" cy="-132" rx="18" ry="18"/>
<text text-anchor="middle" x="252" y="-128.6" font-family="sans-serif" font-size="13.00">4</text>
</g>
<!-- 1&#45;&#45;4 -->
<g id="edge3" class="edge"><title>1&#45;&#45;4</title>
<path fill="none" stroke="black" d="M36.2526,-216.485C72.3937,-216.713 157.538,-213.052 216,-177 227.457,-169.935 236.619,-157.676 242.691,-147.736"/>
<text text-anchor="middle" x="135" y="-210" font-family="sans-serif" font-size="10.00">0</text>
</g>
<!-- 5 -->
<g id="node5" class="node"><title>5</title>
<ellipse fill="lightgrey" stroke="black" cx="340" cy="-161" rx="18" ry="18"/>
<text text-anchor="middle" x="340" y="-157.6" font-family="sans-serif" font-size="13.00">5</text>
</g>
<!-- 1&#45;&#45;5 -->
<g id="edge4" class="edge"><title>1&#45;&#45;5</title>
<path fill="none" stroke="black" d="M30.8311,-228.814C44.7492,-242.425 69.2435,-262 95,-262 95,-262 95,-262 253,-262 296.527,-262 322.659,-206.949 333.356,-178.133"/>
<text text-anchor="middle" x="174" y="-265" font-family="sans-serif" font-size="10.00">0</text>
</g>
<!-- 6 -->
<g id="node6" class="node"><title>6</title>
<ellipse fill="lightgrey" stroke="black" cx="423" cy="-114" rx="18" ry="18"/>
<text text-anchor="middle" x="423" y="-110.6" font-family="sans-serif" font-size="13.00">6</text>
</g>
<!-- 1&#45;&#45;6 -->
<g id="edge5" class="edge"><title>1&#45;&#45;6</title>
<path fill="none" stroke="black" d="M25.1782,-232.793C35.5039,-257.565 58.7743,-301 95,-301 95,-301 95,-301 341,-301 414.06,-301 421.958,-179.325 422.281,-132.271"/>
<text text-anchor="middle" x="213" y="-304" font-family="sans-serif" font-size="10.00">0</text>
</g>
<!-- 2&#45;&#45;3 -->
<g id="edge6" class="edge"><title>2&#45;&#45;3</title>
<path fill="none" stroke="black" d="M110.587,-128.452C124.335,-117.779 145.477,-101.367 159.274,-90.6556"/>
<text text-anchor="middle" x="135" y="-114" font-family="sans-serif" font-size="10.00">0</text>
</g>
<!-- 2&#45;&#45;4 -->
<g id="edge7" class="edge"><title>2&#45;&#45;4</title>
<path fill="none" stroke="black" d="M114.069,-138.224C143.671,-136.879 204.199,-134.127 233.854,-132.779"/>
<text text-anchor="middle" x="174" y="-139" font-family="sans-serif" font-size="10.00">0</text>
</g>
<!-- 2&#45;&#45;5 -->
<g id="edge8" class="edge"><title>2&#45;&#45;5</title>
<path fill="none" stroke="black" d="M113.147,-145.469C118.997,-147.562 125.713,-149.682 132,-151 200.092,-165.28 218.486,-161.109 288,-164 295.105,-164.296 296.895,-164.304 304,-164 309.849,-163.75 316.234,-163.265 321.929,-162.758"/>
<text text-anchor="middle" x="213" y="-165" font-family="sans-serif" font-size="10.00">0</text>
</g>
<!-- 2&#45;&#45;6 -->
<g id="edge9" class="edge"><title>2&#45;&#45;6</title>
<path fill="none" stroke="black" d="M107.81,-125.148C109.954,-122.191 112.121,-119.041 114,-116 144.406,-66.7957 115.159,-3.55271e-015 173,-0 173,-0 173,-0 341,-0 387.615,-0 409.87,-64.125 418.084,-96.1875"/>
<text text-anchor="middle" x="252" y="-3" font-family="sans-serif" font-size="10.00">0</text>
</g>
<!-- 3&#45;&#45;4 -->
<g id="edge10" class="edge"><title>3&#45;&#45;4</title>
<path fill="none" stroke="black" d="M189.295,-89.7808C202.883,-99.0776 223.203,-112.981 236.769,-122.263"/>
<text text-anchor="middle" x="213" y="-110" font-family="sans-serif" font-size="10.00">0</text>
</g>
<!-- 3&#45;&#45;5 -->
<g id="edge11" class="edge"><title>3&#45;&#45;5</title>
<path fill="none" stroke="black" d="M192.056,-79.4311C211.82,-79.4482 244.885,-81.6036 270,-94 295.005,-106.342 316.749,-131.094 328.846,-146.812"/>
<text text-anchor="middle" x="252" y="-97" font-family="sans-serif" font-size="10.00">0</text>
</g>
<!-- 3&#45;&#45;6 -->
<g id="edge12" class="edge"><title>3&#45;&#45;6</title>
<path fill="none" stroke="black" d="M192.056,-77.6569C197.751,-76.9798 204.138,-76.3339 210,-76 212.662,-75.8484 213.334,-75.9506 216,-76 240.012,-76.4445 246.201,-74.7727 270,-78 319.984,-84.7783 377.575,-100.711 405.332,-108.917"/>
<text text-anchor="middle" x="296" y="-86" font-family="sans-serif" font-size="10.00">0</text>
</g>
<!-- 4&#45;&#45;5 -->
<g id="edge13" class="edge"><title>4&#45;&#45;5</title>
<path fill="none" stroke="black" d="M269.176,-137.455C284.454,-142.607 307.254,-150.295 322.604,-155.471"/>
<text text-anchor="middle" x="296" y="-152" font-family="sans-serif" font-size="10.00">100</text>
</g>
<!-- 4&#45;&#45;6 -->
<g id="edge14" class="edge"><title>4&#45;&#45;6</title>
<path fill="none" stroke="black" d="M269.991,-129.592C283.943,-127.66 304.228,-124.958 322,-123 351.108,-119.793 385.078,-116.919 404.993,-115.322"/>
<text text-anchor="middle" x="340" y="-126" font-family="sans-serif" font-size="10.00">95</text>
</g>
<!-- 5&#45;&#45;6 -->
<g id="edge15" class="edge"><title>5&#45;&#45;6</title>
<path fill="none" stroke="black" d="M355.857,-152.379C370.38,-143.952 392.378,-131.188 406.963,-122.725"/>
<text text-anchor="middle" x="381.5" y="-143" font-family="sans-serif" font-size="10.00">95</text>
</g>
</g>
</svg>
