<?xml version="1.0" encoding="UTF-8" standalone="no"?>
<!DOCTYPE svg PUBLIC "-//W3C//DTD SVG 1.1//EN"
 "http://www.w3.org/Graphics/SVG/1.1/DTD/svg11.dtd">
<!-- Generated by graphviz version 2.38.0 (20140413.2041)
 -->
<!-- Title: G Pages: 1 -->
<svg width="469pt" height="320pt"
 viewBox="0.00 0.00 469.00 320.00" xmlns="http://www.w3.org/2000/svg" xmlns:xlink="http://www.w3.org/1999/xlink">
<g id="graph0" class="graph" transform="scale(1 1) rotate(0) translate(4 316)">
<title>G</title>
<polygon fill="white" stroke="none" points="-4,4 -4,-316 465,-316 465,4 -4,4"/>
<!-- 1 -->
<g id="node1" class="node"><title>1</title>
<ellipse fill="lightgrey" stroke="black" cx="18" cy="-216" rx="18" ry="18"/>
<text text-anchor="middle" x="18" y="-212.6" font-family="sans-serif" font-size="13.00">1</text>
</g>
<!-- 2 -->
<g id="node2" class="node"><title>2</title>
<ellipse fill="lightgrey" stroke="black" cx="96" cy="-139" rx="18" ry="18"/>
<text text-anchor="middle" x="96" y="-135.6" font-family="sans-serif" font-size="13.00">2</text>
</g>
<!-- 1&#45;&#45;2 -->
<g id="edge1" class="edge"><title>1&#45;&#45;2</title>
<path fill="none" stroke="black" d="M31.2107,-203.629C45.3931,-189.26 68.6501,-165.697 82.8196,-151.341"/>
<text text-anchor="middle" x="57" y="-182" font-family="sans-serif" font-size="10.00">0</text>
</g>
<!-- 3 -->
<g id="node3" class="node"><title>3</title>
<ellipse fill="lightgrey" stroke="black" cx="184" cy="-80" rx="18" ry="18"/>
<text text-anchor="middle" x="184" y="-76.6" font-family="sans-serif" font-size="13.00">3</text>
</g>
<!-- 1&#45;&#45;3 -->
<g id="edge2" class="edge"><title>1&#45;&#45;3</title>
<path fill="none" stroke="black" d="M22.8808,-198.477C29.519,-172.835 45.595,-125.486 78,-101 103.956,-81.3872 143.492,-78.7755 165.912,-79.0862"/>
<text text-anchor="middle" x="96" y="-104" font-family="sans-serif" font-size="10.00">0</text>
</g>
<!-- 4 -->
<g id="node4" class="node"><title>4</title>
<ellipse fill="lightgrey" stroke="black" cx="272" cy="-132" rx="18" ry="18"/>
<text text-anchor="middle" x="272" y="-128.6" font-family="sans-serif" font-size="13.00">4</text>
</g>
<!-- 1&#45;&#45;4 -->
<g id="edge3" class="edge"><title>1&#45;&#45;4</title>
<path fill="none" stroke="black" d="M36.2039,-216.904C74.8923,-218.132 170.488,-216.608 236,-177 247.519,-170.036 256.677,-157.771 262.731,-147.803"/>
<text text-anchor="middle" x="140" y="-214" font-family="sans-serif" font-size="10.00">100</text>
</g>
<!-- 5 -->
<g id="node5" class="node"><title>5</title>
<ellipse fill="lightgrey" stroke="black" cx="360" cy="-161" rx="18" ry="18"/>
<text text-anchor="middle" x="360" y="-157.6" font-family="sans-serif" font-size="13.00">5</text>
</g>
<!-- 1&#45;&#45;5 -->
<g id="edge4" class="edge"><title>1&#45;&#45;5</title>
<path fill="none" stroke="black" d="M30.8311,-228.814C44.7492,-242.425 69.2435,-262 95,-262 95,-262 95,-262 273,-262 316.527,-262 342.659,-206.949 353.356,-178.133"/>
<text text-anchor="middle" x="184" y="-265" font-family="sans-serif" font-size="10.00">100</text>
</g>
<!-- 6 -->
<g id="node6" class="node"><title>6</title>
<ellipse fill="lightgrey" stroke="black" cx="443" cy="-114" rx="18" ry="18"/>
<text text-anchor="middle" x="443" y="-110.6" font-family="sans-serif" font-size="13.00">6</text>
</g>
<!-- 1&#45;&#45;6 -->
<g id="edge5" class="edge"><title>1&#45;&#45;6</title>
<path fill="none" stroke="black" d="M25.1782,-232.793C35.5039,-257.565 58.7743,-301 95,-301 95,-301 95,-301 361,-301 434.06,-301 441.958,-179.325 442.281,-132.271"/>
<text text-anchor="middle" x="228" y="-304" font-family="sans-serif" font-size="10.00">100</text>
</g>
<!-- 2&#45;&#45;3 -->
<g id="edge6" class="edge"><title>2&#45;&#45;3</title>
<path fill="none" stroke="black" d="M111.231,-128.678C117.557,-124.13 125.117,-118.751 132,-114 144.261,-105.537 158.364,-96.1622 168.628,-89.4037"/>
<text text-anchor="middle" x="140" y="-117" font-family="sans-serif" font-size="10.00">0</text>
</g>
<!-- 2&#45;&#45;4 -->
<g id="edge7" class="edge"><title>2&#45;&#45;4</title>
<path fill="none" stroke="black" d="M114.001,-138.316C147.265,-136.978 220.61,-134.027 253.93,-132.687"/>
<text text-anchor="middle" x="184" y="-139" font-family="sans-serif" font-size="10.00">0</text>
</g>
<!-- 2&#45;&#45;5 -->
<g id="edge8" class="edge"><title>2&#45;&#45;5</title>
<path fill="none" stroke="black" d="M113.14,-145.502C118.99,-147.598 125.707,-149.711 132,-151 208.84,-166.737 229.618,-161.109 308,-164 315.106,-164.262 316.895,-164.304 324,-164 329.849,-163.75 336.234,-163.265 341.929,-162.758"/>
<text text-anchor="middle" x="228" y="-165" font-family="sans-serif" font-size="10.00">0</text>
</g>
<!-- 2&#45;&#45;6 -->
<g id="edge9" class="edge"><title>2&#45;&#45;6</title>
<path fill="none" stroke="black" d="M107.655,-125.049C109.811,-122.1 112.021,-118.978 114,-116 147.203,-66.0399 123.013,-3.55271e-015 183,-0 183,-0 183,-0 361,-0 407.615,-0 429.87,-64.125 438.084,-96.1875"/>
<text text-anchor="middle" x="272" y="-3" font-family="sans-serif" font-size="10.00">0</text>
</g>
<!-- 3&#45;&#45;4 -->
<g id="edge10" class="edge"><title>3&#45;&#45;4</title>
<path fill="none" stroke="black" d="M199.98,-89.0577C215.765,-98.602 240.472,-113.541 256.192,-123.046"/>
<text text-anchor="middle" x="228" y="-113" font-family="sans-serif" font-size="10.00">0</text>
</g>
<!-- 3&#45;&#45;5 -->
<g id="edge11" class="edge"><title>3&#45;&#45;5</title>
<path fill="none" stroke="black" d="M202.303,-79.0738C223.924,-78.6207 261.54,-80.1951 290,-94 315.089,-106.17 336.808,-130.974 348.877,-146.749"/>
<text text-anchor="middle" x="272" y="-97" font-family="sans-serif" font-size="10.00">0</text>
</g>
<!-- 3&#45;&#45;6 -->
<g id="edge12" class="edge"><title>3&#45;&#45;6</title>
<path fill="none" stroke="black" d="M202.038,-77.0715C207.731,-76.2253 214.122,-75.4177 220,-75 227.093,-74.4959 228.892,-74.8027 236,-75 260.028,-75.6669 266.212,-74.55 290,-78 339.919,-85.2398 397.539,-100.963 425.318,-109.021"/>
<text text-anchor="middle" x="316" y="-86" font-family="sans-serif" font-size="10.00">0</text>
</g>
<!-- 4&#45;&#45;5 -->
<g id="edge13" class="edge"><title>4&#45;&#45;5</title>
<path fill="none" stroke="black" d="M289.176,-137.455C304.454,-142.607 327.254,-150.295 342.604,-155.471"/>
<text text-anchor="middle" x="316" y="-152" font-family="sans-serif" font-size="10.00">100</text>
</g>
<!-- 4&#45;&#45;6 -->
<g id="edge14" class="edge"><title>4&#45;&#45;6</title>
<path fill="none" stroke="black" d="M289.991,-129.592C303.943,-127.66 324.228,-124.958 342,-123 371.108,-119.793 405.078,-116.919 424.993,-115.322"/>
<text text-anchor="middle" x="360" y="-126" font-family="sans-serif" font-size="10.00">100</text>
</g>
<!-- 5&#45;&#45;6 -->
<g id="edge15" class="edge"><title>5&#45;&#45;6</title>
<path fill="none" stroke="black" d="M375.857,-152.379C390.38,-143.952 412.378,-131.188 426.963,-122.725"/>
<text text-anchor="middle" x="401.5" y="-143" font-family="sans-serif" font-size="10.00">95</text>
</g>
</g>
</svg>
