<?xml version="1.0" encoding="UTF-8" standalone="no"?>
<!DOCTYPE svg PUBLIC "-//W3C//DTD SVG 1.1//EN"
 "http://www.w3.org/Graphics/SVG/1.1/DTD/svg11.dtd">
<!-- Generated by graphviz version 2.38.0 (20140413.2041)
 -->
<!-- Title: G Pages: 1 -->
<svg width="182pt" height="182pt"
 viewBox="0.00 0.00 181.51 181.51" xmlns="http://www.w3.org/2000/svg" xmlns:xlink="http://www.w3.org/1999/xlink">
<g id="graph0" class="graph" transform="scale(1 1) rotate(0) translate(4 177.51)">
<title>G</title>
<polygon fill="white" stroke="none" points="-4,4 -4,-177.51 177.51,-177.51 177.51,4 -4,4"/>
<!-- 1 -->
<g id="node1" class="node"><title>1</title>
<ellipse fill="lightgrey" stroke="black" cx="86.7549" cy="-18" rx="18" ry="18"/>
<text text-anchor="middle" x="86.7549" y="-14.6" font-family="sans-serif" font-size="13.00">1</text>
</g>
<!-- 2 -->
<g id="node2" class="node"><title>2</title>
<ellipse fill="lightgrey" stroke="black" cx="155.51" cy="-86.7549" rx="18" ry="18"/>
<text text-anchor="middle" x="155.51" y="-83.3549" font-family="sans-serif" font-size="13.00">2</text>
</g>
<!-- 1&#45;&#45;2 -->
<!-- Wildcard edge -->
<g id="edge1" class="edge"><title>1&#45;&#45;2</title>
<path fill="none" stroke="black" d="M99.6872,-30.9323C111.98,-43.2246 130.362,-61.6076 142.636,-73.8806"/>
</g>
<!-- 3 -->
<g id="node3" class="node"><title>3</title>
<ellipse fill="lightgrey" stroke="black" cx="86.7549" cy="-155.51" rx="18" ry="18"/>
<text text-anchor="middle" x="86.7549" y="-152.11" font-family="sans-serif" font-size="13.00">3</text>
</g>
<!-- 1&#45;&#45;3 -->
<!-- Wildcard edge -->
<g id="edge3" class="edge"><title>1&#45;&#45;3</title>
<path fill="none" stroke="black" d="M86.7549,-36.2602C86.7549,-62.5609 86.7549,-110.831 86.7549,-137.174"/>
</g>
<!-- 4 -->
<g id="node4" class="node"><title>4</title>
<ellipse fill="lightgrey" stroke="black" cx="18" cy="-86.7549" rx="18" ry="18"/>
<text text-anchor="middle" x="18" y="-83.3549" font-family="sans-serif" font-size="13.00">4</text>
</g>
<!-- 1&#45;&#45;4 -->
<!-- Wildcard edge -->
<g id="edge5" class="edge"><title>1&#45;&#45;4</title>
<path fill="none" stroke="black" d="M73.8227,-30.9323C61.5304,-43.2246 43.1474,-61.6076 30.8743,-73.8806"/>
</g>
<!-- 2&#45;&#45;3 -->
<!-- Wildcard edge -->
<g id="edge2" class="edge"><title>2&#45;&#45;3</title>
<path fill="none" stroke="black" d="M142.578,-99.6872C130.285,-111.98 111.902,-130.362 99.6292,-142.636"/>
</g>
<!-- 2&#45;&#45;4 -->
<!-- Wildcard edge -->
<g id="edge6" class="edge"><title>2&#45;&#45;4</title>
<path fill="none" stroke="black" d="M137.25,-86.7549C110.949,-86.7549 62.6784,-86.7549 36.3358,-86.7549"/>
</g>
<!-- 3&#45;&#45;4 -->
<!-- Wildcard edge -->
<g id="edge4" class="edge"><title>3&#45;&#45;4</title>
<path fill="none" stroke="black" d="M73.8227,-142.578C61.5304,-130.285 43.1474,-111.902 30.8743,-99.6292"/>
</g>
</g>
</svg>
