<?xml version="1.0" encoding="UTF-8" standalone="no"?>
<!DOCTYPE svg PUBLIC "-//W3C//DTD SVG 1.1//EN"
 "http://www.w3.org/Graphics/SVG/1.1/DTD/svg11.dtd">
<!-- Generated by graphviz version 2.38.0 (20140413.2041)
 -->
<!-- Title: G Pages: 1 -->
<svg width="660pt" height="556pt"
 viewBox="0.00 0.00 660.00 556.00" xmlns="http://www.w3.org/2000/svg" xmlns:xlink="http://www.w3.org/1999/xlink">
<g id="graph0" class="graph" transform="scale(1 1) rotate(0) translate(4 552)">
<title>G</title>
<polygon fill="white" stroke="none" points="-4,4 -4,-552 656,-552 656,4 -4,4"/>
<!-- 1 -->
<g id="node1" class="node"><title>1</title>
<ellipse fill="lightgrey" stroke="black" cx="18" cy="-215" rx="18" ry="18"/>
<text text-anchor="middle" x="18" y="-211.6" font-family="sans-serif" font-size="13.00">1</text>
</g>
<!-- 2 -->
<g id="node2" class="node"><title>2</title>
<ellipse fill="lightgrey" stroke="black" cx="106" cy="-215" rx="18" ry="18"/>
<text text-anchor="middle" x="106" y="-211.6" font-family="sans-serif" font-size="13.00">2</text>
</g>
<!-- 1&#45;&#45;2 -->
<!-- Wildcard edge -->
<g id="edge1" class="edge"><title>1&#45;&#45;2</title>
<path fill="none" stroke="black" d="M36.4034,-215C51.4222,-215 72.991,-215 87.916,-215"/>
<text text-anchor="middle" x="62" y="-218" font-family="sans-serif" font-size="10.00">100</text>
</g>
<!-- 3 -->
<g id="node3" class="node"><title>3</title>
<ellipse fill="lightgrey" stroke="black" cx="194" cy="-285" rx="18" ry="18"/>
<text text-anchor="middle" x="194" y="-281.6" font-family="sans-serif" font-size="13.00">3</text>
</g>
<!-- 1&#45;&#45;3 -->
<!-- Wildcard edge -->
<g id="edge2" class="edge"><title>1&#45;&#45;3</title>
<path fill="none" stroke="black" d="M34.9902,-221.965C40.9426,-224.528 47.7654,-227.431 54,-230 98.1514,-248.192 150.643,-268.646 176.677,-278.712"/>
<text text-anchor="middle" x="106" y="-260" font-family="sans-serif" font-size="10.00">100</text>
</g>
<!-- 4 -->
<g id="node4" class="node"><title>4</title>
<ellipse fill="lightgrey" stroke="black" cx="282" cy="-382" rx="18" ry="18"/>
<text text-anchor="middle" x="282" y="-378.6" font-family="sans-serif" font-size="13.00">4</text>
</g>
<!-- 1&#45;&#45;4 -->
<!-- Wildcard edge -->
<g id="edge3" class="edge"><title>1&#45;&#45;4</title>
<path fill="none" stroke="black" d="M29.487,-229.123C52.5445,-259.158 110.814,-329.67 176,-367 203.644,-382.831 241.877,-384.116 263.763,-383.285"/>
<text text-anchor="middle" x="150" y="-357" font-family="sans-serif" font-size="10.00">100</text>
</g>
<!-- 5 -->
<g id="node5" class="node"><title>5</title>
<ellipse fill="lightgrey" stroke="black" cx="370" cy="-207" rx="18" ry="18"/>
<text text-anchor="middle" x="370" y="-203.6" font-family="sans-serif" font-size="13.00">5</text>
</g>
<!-- 1&#45;&#45;5 -->
<!-- Wildcard edge -->
<g id="edge4" class="edge"><title>1&#45;&#45;5</title>
<path fill="none" stroke="black" d="M29.6331,-200.884C52.5376,-172.094 109.851,-108.434 176,-98 233.337,-88.9557 254.503,-102.954 300,-139 321.752,-156.233 344.128,-179.5 357.288,-193.864"/>
<text text-anchor="middle" x="194" y="-101" font-family="sans-serif" font-size="10.00">100</text>
</g>
<!-- 6 -->
<g id="node6" class="node"><title>6</title>
<ellipse fill="lightgrey" stroke="black" cx="458" cy="-190" rx="18" ry="18"/>
<text text-anchor="middle" x="458" y="-186.6" font-family="sans-serif" font-size="13.00">6</text>
</g>
<!-- 1&#45;&#45;6 -->
<!-- Wildcard edge -->
<g id="edge5" class="edge"><title>1&#45;&#45;6</title>
<path fill="none" stroke="black" d="M25.2055,-198.438C34.835,-175.215 55.7,-133.525 88,-113 142.443,-78.4053 165.716,-88.3203 230,-83 319.011,-75.6332 411.029,-148.679 444.16,-178.075"/>
<text text-anchor="middle" x="238" y="-86" font-family="sans-serif" font-size="10.00">100</text>
</g>
<!-- 7 -->
<g id="node7" class="node"><title>7</title>
<ellipse fill="lightgrey" stroke="black" cx="546" cy="-273" rx="18" ry="18"/>
<text text-anchor="middle" x="546" y="-269.6" font-family="sans-serif" font-size="13.00">7</text>
</g>
<!-- 1&#45;&#45;7 -->
<!-- Wildcard edge -->
<g id="edge6" class="edge"><title>1&#45;&#45;7</title>
<path fill="none" stroke="black" d="M22.1062,-197.406C31.6663,-146.057 62.5872,-0 105,-0 105,-0 105,-0 327,-0 436.215,-0 460.498,-66.6479 510,-164 526.322,-196.099 514.985,-209.423 528,-243 529.991,-248.135 532.746,-253.454 535.459,-258.161"/>
<text text-anchor="middle" x="282" y="-3" font-family="sans-serif" font-size="10.00">100</text>
</g>
<!-- 8 -->
<g id="node8" class="node"><title>8</title>
<ellipse fill="lightgrey" stroke="black" cx="634" cy="-273" rx="18" ry="18"/>
<text text-anchor="middle" x="634" y="-269.6" font-family="sans-serif" font-size="13.00">8</text>
</g>
<!-- 1&#45;&#45;8 -->
<!-- Wildcard edge -->
<g id="edge7" class="edge"><title>1&#45;&#45;8</title>
<path fill="none" stroke="black" d="M19.8996,-233.235C23.7481,-301.352 41.6408,-537 105,-537 105,-537 105,-537 547,-537 598.819,-537 624.257,-350.791 631.076,-291.146"/>
<text text-anchor="middle" x="326" y="-540" font-family="sans-serif" font-size="10.00">100</text>
</g>
<!-- 2&#45;&#45;3 -->
<!-- Wildcard edge -->
<g id="edge8" class="edge"><title>2&#45;&#45;3</title>
<path fill="none" stroke="black" d="M121.66,-224.888C132.059,-232.081 146.206,-242.23 158,-252 165.846,-258.5 174.163,-266.299 180.72,-272.683"/>
<text text-anchor="middle" x="150" y="-255" font-family="sans-serif" font-size="10.00">100</text>
</g>
<!-- 2&#45;&#45;4 -->
<!-- Wildcard edge -->
<g id="edge9" class="edge"><title>2&#45;&#45;4</title>
<path fill="none" stroke="black" d="M116.911,-229.526C119.242,-232.957 121.713,-236.604 124,-240 132.055,-251.963 133.649,-255.241 142,-267 175.895,-314.727 180.061,-334.457 230,-365 240.51,-371.428 253.741,-375.747 264.092,-378.423"/>
<text text-anchor="middle" x="194" y="-355" font-family="sans-serif" font-size="10.00">100</text>
</g>
<!-- 2&#45;&#45;5 -->
<!-- Wildcard edge -->
<g id="edge10" class="edge"><title>2&#45;&#45;5</title>
<path fill="none" stroke="black" d="M124.191,-214.475C171.663,-213.026 304.198,-208.979 351.746,-207.527"/>
<text text-anchor="middle" x="238" y="-214" font-family="sans-serif" font-size="10.00">100</text>
</g>
<!-- 2&#45;&#45;6 -->
<!-- Wildcard edge -->
<g id="edge11" class="edge"><title>2&#45;&#45;6</title>
<path fill="none" stroke="black" d="M118.376,-201.928C133.618,-185.947 162.324,-161 193,-161 193,-161 193,-161 371,-161 396.998,-161 425.209,-173.047 441.981,-181.612"/>
<text text-anchor="middle" x="282" y="-164" font-family="sans-serif" font-size="10.00">100</text>
</g>
<!-- 2&#45;&#45;7 -->
<!-- Wildcard edge -->
<g id="edge12" class="edge"><title>2&#45;&#45;7</title>
<path fill="none" stroke="black" d="M117.563,-229.145C119.868,-232.591 122.163,-236.341 124,-240 134.971,-261.857 132.941,-269.283 142,-292 183.046,-394.935 170.183,-499 281,-499 281,-499 281,-499 415,-499 510.734,-499 537.015,-344.741 543.259,-291.112"/>
<text text-anchor="middle" x="326" y="-502" font-family="sans-serif" font-size="10.00">100</text>
</g>
<!-- 2&#45;&#45;8 -->
<!-- Wildcard edge -->
<g id="edge13" class="edge"><title>2&#45;&#45;8</title>
<path fill="none" stroke="black" d="M115.752,-199.413C122.01,-189.389 131.214,-176.666 142,-168 167.742,-147.317 379.978,-46 413,-46 413,-46 413,-46 547,-46 591.672,-46 621.334,-201.675 630.211,-255.188"/>
<text text-anchor="middle" x="370" y="-68" font-family="sans-serif" font-size="10.00">100</text>
</g>
<!-- 3&#45;&#45;4 -->
<!-- Wildcard edge -->
<g id="edge14" class="edge"><title>3&#45;&#45;4</title>
<path fill="none" stroke="black" d="M204.404,-299.709C211.08,-309.745 220.509,-323.135 230,-334 241.838,-347.553 257.034,-361.478 267.749,-370.816"/>
<text text-anchor="middle" x="238" y="-353" font-family="sans-serif" font-size="10.00">100</text>
</g>
<!-- 3&#45;&#45;5 -->
<!-- Wildcard edge -->
<g id="edge15" class="edge"><title>3&#45;&#45;5</title>
<path fill="none" stroke="black" d="M210.748,-277.94C243.792,-263.128 320.04,-228.948 353.162,-214.1"/>
<text text-anchor="middle" x="282" y="-256" font-family="sans-serif" font-size="10.00">100</text>
</g>
<!-- 3&#45;&#45;6 -->
<!-- Wildcard edge -->
<g id="edge16" class="edge"><title>3&#45;&#45;6</title>
<path fill="none" stroke="black" d="M212.165,-284.573C238.897,-283.461 291.788,-279.449 334,-265 377.54,-250.096 422.033,-217.872 443.617,-200.924"/>
<text text-anchor="middle" x="326" y="-272" font-family="sans-serif" font-size="10.00">100</text>
</g>
<!-- 3&#45;&#45;7 -->
<!-- Wildcard edge -->
<g id="edge17" class="edge"><title>3&#45;&#45;7</title>
<path fill="none" stroke="black" d="M211.137,-291.2C216.986,-293.144 223.704,-295.034 230,-296 237.029,-297.079 238.894,-296.273 246,-296 353.431,-291.874 482.096,-279.439 527.836,-274.784"/>
<text text-anchor="middle" x="370" y="-292" font-family="sans-serif" font-size="10.00">100</text>
</g>
<!-- 3&#45;&#45;8 -->
<!-- Wildcard edge -->
<g id="edge18" class="edge"><title>3&#45;&#45;8</title>
<path fill="none" stroke="black" d="M204.781,-299.788C207.318,-303.962 209.919,-308.574 212,-313 222.405,-335.133 218.37,-343.486 230,-365 241.752,-386.741 243.949,-394.553 264,-409 320.907,-450.001 342.861,-461 413,-461 413,-461 413,-461 547,-461 621.296,-461 631.67,-338.081 632.92,-291.026"/>
<text text-anchor="middle" x="414" y="-464" font-family="sans-serif" font-size="10.00">100</text>
</g>
<!-- 4&#45;&#45;5 -->
<!-- Wildcard edge -->
<g id="edge19" class="edge"><title>4&#45;&#45;5</title>
<path fill="none" stroke="black" d="M284.777,-363.788C287.995,-337.773 296.567,-289.231 318,-254 327.262,-238.776 342.86,-225.446 354.373,-216.908"/>
<text text-anchor="middle" x="326" y="-257" font-family="sans-serif" font-size="10.00">100</text>
</g>
<!-- 4&#45;&#45;6 -->
<!-- Wildcard edge -->
<g id="edge20" class="edge"><title>4&#45;&#45;6</title>
<path fill="none" stroke="black" d="M298.605,-374.436C320.393,-363.345 360.359,-341.026 388,-314 407.215,-295.212 408.659,-287.328 422,-264 433.006,-244.755 443.595,-221.485 450.189,-206.243"/>
<text text-anchor="middle" x="370" y="-345" font-family="sans-serif" font-size="10.00">100</text>
</g>
<!-- 4&#45;&#45;7 -->
<!-- Wildcard edge -->
<g id="edge21" class="edge"><title>4&#45;&#45;7</title>
<path fill="none" stroke="black" d="M299.966,-380.856C339.988,-377.421 442.025,-364.29 510,-317 520.737,-309.53 529.823,-297.825 536.045,-288.365"/>
<text text-anchor="middle" x="414" y="-365" font-family="sans-serif" font-size="10.00">100</text>
</g>
<!-- 4&#45;&#45;8 -->
<!-- Wildcard edge -->
<g id="edge22" class="edge"><title>4&#45;&#45;8</title>
<path fill="none" stroke="black" d="M299.179,-387.638C305.032,-389.406 311.742,-391.123 318,-392 349.011,-396.343 357.165,-389.454 388,-384 403.192,-381.313 407.134,-381.125 422,-377 500.706,-355.16 585.218,-303.968 618.426,-282.617"/>
<text text-anchor="middle" x="458" y="-374" font-family="sans-serif" font-size="10.00">100</text>
</g>
<!-- 5&#45;&#45;6 -->
<!-- Wildcard edge -->
<g id="edge23" class="edge"><title>5&#45;&#45;6</title>
<path fill="none" stroke="black" d="M387.991,-203.641C403.068,-200.661 424.978,-196.33 440.044,-193.352"/>
<text text-anchor="middle" x="414" y="-203" font-family="sans-serif" font-size="10.00">100</text>
</g>
<!-- 5&#45;&#45;7 -->
<!-- Wildcard edge -->
<g id="edge24" class="edge"><title>5&#45;&#45;7</title>
<path fill="none" stroke="black" d="M387.058,-213.091C420.205,-225.664 495.867,-254.363 528.981,-266.924"/>
<text text-anchor="middle" x="458" y="-249" font-family="sans-serif" font-size="10.00">100</text>
</g>
<!-- 5&#45;&#45;8 -->
<!-- Wildcard edge -->
<g id="edge25" class="edge"><title>5&#45;&#45;8</title>
<path fill="none" stroke="black" d="M384.119,-195.356C397.218,-184.573 418.45,-169.286 440,-163 455.36,-158.519 460.428,-159.324 476,-163 537.497,-177.518 552.185,-192.483 598,-236 606.078,-243.673 614.683,-252.756 621.339,-260.002"/>
<text text-anchor="middle" x="502" y="-176" font-family="sans-serif" font-size="10.00">100</text>
</g>
<!-- 6&#45;&#45;7 -->
<!-- Wildcard edge -->
<g id="edge26" class="edge"><title>6&#45;&#45;7</title>
<path fill="none" stroke="black" d="M475.002,-196.656C485.755,-201.68 499.777,-209.353 510,-219 521.538,-229.887 531.045,-245.311 537.224,-256.889"/>
<text text-anchor="middle" x="502" y="-222" font-family="sans-serif" font-size="10.00">100</text>
</g>
<!-- 6&#45;&#45;8 -->
<!-- Wildcard edge -->
<g id="edge27" class="edge"><title>6&#45;&#45;8</title>
<path fill="none" stroke="black" d="M475.897,-193.118C486.005,-195.273 498.984,-198.556 510,-203 551.47,-219.732 596.143,-248.053 618.504,-263.029"/>
<text text-anchor="middle" x="546" y="-231" font-family="sans-serif" font-size="10.00">100</text>
</g>
<!-- 7&#45;&#45;8 -->
<!-- Wildcard edge -->
<g id="edge28" class="edge"><title>7&#45;&#45;8</title>
<path fill="none" stroke="black" d="M564.403,-273C579.422,-273 600.991,-273 615.916,-273"/>
<text text-anchor="middle" x="590" y="-276" font-family="sans-serif" font-size="10.00">100</text>
</g>
</g>
</svg>
