<?xml version="1.0" encoding="UTF-8" standalone="no"?>
<!DOCTYPE svg PUBLIC "-//W3C//DTD SVG 1.1//EN"
 "http://www.w3.org/Graphics/SVG/1.1/DTD/svg11.dtd">
<!-- Generated by graphviz version 2.38.0 (20140413.2041)
 -->
<!-- Title: G Pages: 1 -->
<svg width="300pt" height="104pt"
 viewBox="0.00 0.00 300.00 103.89" xmlns="http://www.w3.org/2000/svg" xmlns:xlink="http://www.w3.org/1999/xlink">
<g id="graph0" class="graph" transform="scale(1 1) rotate(0) translate(4 99.8926)">
<title>G</title>
<polygon fill="white" stroke="none" points="-4,4 -4,-99.8926 296,-99.8926 296,4 -4,4"/>
<!-- 1 -->
<g id="node1" class="node"><title>1</title>
<ellipse fill="lightgrey" stroke="black" cx="18" cy="-26.8926" rx="18" ry="18"/>
<text text-anchor="middle" x="18" y="-23.4926" font-family="sans-serif" font-size="13.00">1</text>
</g>
<!-- 2 -->
<g id="node2" class="node"><title>2</title>
<ellipse fill="lightgrey" stroke="black" cx="98" cy="-77.8926" rx="18" ry="18"/>
<text text-anchor="middle" x="98" y="-74.4926" font-family="sans-serif" font-size="13.00">2</text>
</g>
<!-- 1&#45;&#45;2 -->
<!-- Wildcard edge -->
<g id="edge1" class="edge"><title>1&#45;&#45;2</title>
<path fill="none" stroke="black" d="M33.6712,-36.4854C47.6164,-45.6033 68.4712,-59.2392 82.3946,-68.343"/>
<text text-anchor="middle" x="58" y="-57.6926" font-family="sans-serif" font-size="14.00">5</text>
</g>
<!-- 3 -->
<g id="node3" class="node"><title>3</title>
<ellipse fill="lightgrey" stroke="black" cx="186" cy="-30.8926" rx="18" ry="18"/>
<text text-anchor="middle" x="186" y="-27.4926" font-family="sans-serif" font-size="13.00">3</text>
</g>
<!-- 1&#45;&#45;3 -->
<!-- Wildcard edge -->
<g id="edge3" class="edge"><title>1&#45;&#45;3</title>
<path fill="none" stroke="black" d="M36.1397,-27.3057C67.9492,-28.0721 135.778,-29.7066 167.705,-30.4759"/>
<text text-anchor="middle" x="98" y="-32.6926" font-family="sans-serif" font-size="14.00">2</text>
</g>
<!-- 4 -->
<g id="node4" class="node"><title>4</title>
<ellipse fill="lightgrey" stroke="black" cx="274" cy="-30.8926" rx="18" ry="18"/>
<text text-anchor="middle" x="274" y="-27.4926" font-family="sans-serif" font-size="13.00">4</text>
</g>
<!-- 1&#45;&#45;4 -->
<!-- Wildcard edge -->
<g id="edge5" class="edge"><title>1&#45;&#45;4</title>
<path fill="none" stroke="black" d="M35.4404,-21.4503C67.8723,-11.462 142.3,7.74931 204,-3.89265 223.214,-7.51801 243.936,-16.3568 257.602,-22.94"/>
<text text-anchor="middle" x="142" y="-5.69265" font-family="sans-serif" font-size="14.00">0</text>
</g>
<!-- 2&#45;&#45;3 -->
<!-- Wildcard edge -->
<g id="edge2" class="edge"><title>2&#45;&#45;3</title>
<path fill="none" stroke="black" d="M114.375,-69.49C130.029,-60.9351 154.153,-47.7511 169.758,-39.2226"/>
<text text-anchor="middle" x="142" y="-61.6926" font-family="sans-serif" font-size="14.00">10</text>
</g>
<!-- 2&#45;&#45;4 -->
<!-- Wildcard edge -->
<g id="edge6" class="edge"><title>2&#45;&#45;4</title>
<path fill="none" stroke="black" d="M116.107,-78.2751C126.059,-78.2359 138.809,-77.7359 150,-75.8926 190.24,-69.2649 200.316,-65.4848 238,-49.8926 244.772,-47.0906 251.937,-43.3515 258.008,-39.9318"/>
<text text-anchor="middle" x="186" y="-75.6926" font-family="sans-serif" font-size="14.00">3</text>
</g>
<!-- 3&#45;&#45;4 -->
<!-- Wildcard edge -->
<g id="edge4" class="edge"><title>3&#45;&#45;4</title>
<path fill="none" stroke="black" d="M204.403,-30.8926C219.422,-30.8926 240.991,-30.8926 255.916,-30.8926"/>
<text text-anchor="middle" x="230" y="-34.6926" font-family="sans-serif" font-size="14.00">15</text>
</g>
</g>
</svg>
