<?xml version="1.0" encoding="UTF-8" standalone="no"?>
<!DOCTYPE svg PUBLIC "-//W3C//DTD SVG 1.1//EN"
 "http://www.w3.org/Graphics/SVG/1.1/DTD/svg11.dtd">
<!-- Generated by graphviz version 2.38.0 (20140413.2041)
 -->
<!-- Title: G Pages: 1 -->
<svg width="184pt" height="122pt"
 viewBox="0.00 0.00 184.49 122.22" xmlns="http://www.w3.org/2000/svg" xmlns:xlink="http://www.w3.org/1999/xlink">
<g id="graph0" class="graph" transform="scale(1 1) rotate(0) translate(80.5607 50.1702)">
<title>G</title>
<polygon fill="white" stroke="none" points="-80.5607,72.0465 -80.5607,-50.1702 103.928,-50.1702 103.928,72.0465 -80.5607,72.0465"/>
<!-- 1 -->
<g id="node1" class="node"><title>1</title>
<ellipse fill="lightgrey" stroke="black" cx="-36.1689" cy="50.0465" rx="18" ry="18"/>
<text text-anchor="middle" x="-36.1689" y="53.4465" font-family="sans-serif" font-size="13.00">1</text>
</g>
<!-- 2 -->
<g id="node2" class="node"><title>2</title>
<ellipse fill="lightgrey" stroke="black" cx="-58.5607" cy="-18.1596" rx="18" ry="18"/>
<text text-anchor="middle" x="-58.5607" y="-14.7596" font-family="sans-serif" font-size="13.00">2</text>
</g>
<!-- 1&#45;&#45;2 -->
<!-- Wildcard edge -->
<g id="edge1" class="edge"><title>1&#45;&#45;2</title>
<path fill="none" stroke="black" d="M-41.8193,32.8352C-45.1878,22.5746 -49.4524,9.58472 -52.8342,-0.716605"/>
</g>
<!-- 3 -->
<g id="node3" class="node"><title>3</title>
<ellipse fill="lightgrey" stroke="black" cx="12.8017" cy="-3.71669" rx="18" ry="18"/>
<text text-anchor="middle" x="12.8017" y="-0.316688" font-family="sans-serif" font-size="13.00">3</text>
</g>
<!-- 1&#45;&#45;3 -->
<!-- Wildcard edge -->
<g id="edge3" class="edge"><title>1&#45;&#45;3</title>
<path fill="none" stroke="black" d="M-23.8116,36.4798C-16.3313,28.2675 -6.83072,17.8371 0.617963,9.65946"/>
</g>
<!-- 2&#45;&#45;3 -->
<!-- Wildcard edge -->
<g id="edge2" class="edge"><title>2&#45;&#45;3</title>
<path fill="none" stroke="black" d="M-40.553,-14.5151C-29.6524,-12.3089 -15.8076,-9.5069 -4.95305,-7.31006"/>
</g>
<!-- 4 -->
<g id="node4" class="node"><title>4</title>
<ellipse fill="lightgrey" stroke="black" cx="81.9279" cy="-28.1702" rx="18" ry="18"/>
<text text-anchor="middle" x="81.9279" y="-24.7702" font-family="sans-serif" font-size="13.00">4</text>
</g>
<!-- 3&#45;&#45;4 -->
<!-- Wildcard edge -->
<g id="edge4" class="edge"><title>3&#45;&#45;4</title>
<path fill="none" stroke="black" d="M29.8891,-9.76138C40.4441,-13.4952 53.9497,-18.2729 64.557,-22.0252"/>
</g>
</g>
</svg>
