<?xml version="1.0" encoding="UTF-8" standalone="no"?>
<!DOCTYPE svg PUBLIC "-//W3C//DTD SVG 1.1//EN"
 "http://www.w3.org/Graphics/SVG/1.1/DTD/svg11.dtd">
<!-- Generated by graphviz version 2.38.0 (20140413.2041)
 -->
<!-- Title: G Pages: 1 -->
<svg width="318pt" height="459pt"
 viewBox="0.00 0.00 318.00 459.00" xmlns="http://www.w3.org/2000/svg" xmlns:xlink="http://www.w3.org/1999/xlink">
<g id="graph0" class="graph" transform="scale(1 1) rotate(0) translate(4 455)">
<title>G</title>
<polygon fill="white" stroke="none" points="-4,4 -4,-455 314,-455 314,4 -4,4"/>
<!-- 1 -->
<g id="node1" class="node"><title>1</title>
<ellipse fill="lightgrey" stroke="black" cx="90" cy="-433" rx="18" ry="18"/>
<text text-anchor="middle" x="90" y="-429.6" font-family="sans-serif" font-size="13.00">1</text>
</g>
<!-- 2 -->
<g id="node2" class="node"><title>2</title>
<ellipse fill="lightgrey" stroke="black" cx="148" cy="-350" rx="18" ry="18"/>
<text text-anchor="middle" x="148" y="-346.6" font-family="sans-serif" font-size="13.00">2</text>
</g>
<!-- 1&#45;&#45;2 -->
<g id="edge1" class="edge"><title>1&#45;&#45;2</title>
<path fill="none" stroke="black" d="M100.103,-417.891C110.683,-403.115 127.208,-380.037 137.818,-365.219"/>
<text text-anchor="middle" x="130" y="-389" font-family="sans-serif" font-size="10.00">100</text>
</g>
<!-- 3 -->
<g id="node3" class="node"><title>3</title>
<ellipse fill="lightgrey" stroke="black" cx="142" cy="-267" rx="18" ry="18"/>
<text text-anchor="middle" x="142" y="-263.6" font-family="sans-serif" font-size="13.00">3</text>
</g>
<!-- 1&#45;&#45;3 -->
<g id="edge2" class="edge"><title>1&#45;&#45;3</title>
<path fill="none" stroke="black" d="M90.6252,-414.905C91.8039,-394.615 95.2029,-360.004 105,-332 111.442,-313.586 123.278,-294.476 131.832,-281.988"/>
<text text-anchor="middle" x="113" y="-347.5" font-family="sans-serif" font-size="10.00">100</text>
</g>
<!-- 4 -->
<g id="node4" class="node"><title>4</title>
<ellipse fill="lightgrey" stroke="black" cx="68" cy="-184" rx="18" ry="18"/>
<text text-anchor="middle" x="68" y="-180.6" font-family="sans-serif" font-size="13.00">4</text>
</g>
<!-- 1&#45;&#45;4 -->
<g id="edge3" class="edge"><title>1&#45;&#45;4</title>
<path fill="none" stroke="black" d="M88.232,-415.073C84.6589,-380.508 76.4548,-299.308 71,-231 70.2355,-221.427 69.5286,-210.721 68.9932,-202.048"/>
<text text-anchor="middle" x="86" y="-306" font-family="sans-serif" font-size="10.00">100</text>
</g>
<!-- 5 -->
<g id="node5" class="node"><title>5</title>
<ellipse fill="lightgrey" stroke="black" cx="120" cy="-101" rx="18" ry="18"/>
<text text-anchor="middle" x="120" y="-97.6" font-family="sans-serif" font-size="13.00">5</text>
</g>
<!-- 1&#45;&#45;5 -->
<g id="edge4" class="edge"><title>1&#45;&#45;5</title>
<path fill="none" stroke="black" d="M73.0717,-425.739C47.0009,-414.872 0,-389.889 0,-351 0,-351 0,-351 0,-183 0,-131.351 54.6618,-148.583 97,-119 99.9306,-116.952 103.032,-114.712 105.976,-112.549"/>
<text text-anchor="middle" x="8" y="-264.5" font-family="sans-serif" font-size="10.00">100</text>
</g>
<!-- 6 -->
<g id="node6" class="node"><title>6</title>
<ellipse fill="lightgrey" stroke="black" cx="166" cy="-18" rx="18" ry="18"/>
<text text-anchor="middle" x="166" y="-14.6" font-family="sans-serif" font-size="13.00">6</text>
</g>
<!-- 1&#45;&#45;6 -->
<g id="edge5" class="edge"><title>1&#45;&#45;6</title>
<path fill="none" stroke="black" d="M107.747,-428.904C157.379,-419.748 294,-390.916 294,-351 294,-351 294,-351 294,-100 294,-48.4561 218.969,-28.3581 183.798,-21.7685"/>
<text text-anchor="middle" x="302" y="-223" font-family="sans-serif" font-size="10.00">100</text>
</g>
<!-- 2&#45;&#45;3 -->
<g id="edge6" class="edge"><title>2&#45;&#45;3</title>
<path fill="none" stroke="black" d="M146.728,-331.822C145.709,-318.076 144.288,-298.893 143.271,-285.153"/>
<text text-anchor="middle" x="153" y="-306" font-family="sans-serif" font-size="10.00">100</text>
</g>
<!-- 2&#45;&#45;4 -->
<g id="edge7" class="edge"><title>2&#45;&#45;4</title>
<path fill="none" stroke="black" d="M135.999,-336.21C125.026,-323.917 109.023,-304.393 99,-285 84.8131,-257.55 75.7978,-222.459 71.3417,-201.98"/>
<text text-anchor="middle" x="107" y="-264.5" font-family="sans-serif" font-size="10.00">100</text>
</g>
<!-- 2&#45;&#45;5 -->
<g id="edge8" class="edge"><title>2&#45;&#45;5</title>
<path fill="none" stroke="black" d="M156.386,-333.928C175.461,-297.436 217.634,-202.523 180,-137 170.87,-121.105 151.43,-111.746 137.141,-106.766"/>
<text text-anchor="middle" x="201" y="-223" font-family="sans-serif" font-size="10.00">100</text>
</g>
<!-- 2&#45;&#45;6 -->
<g id="edge9" class="edge"><title>2&#45;&#45;6</title>
<path fill="none" stroke="black" d="M165.303,-344.042C194.404,-334.521 250,-310.738 250,-268 250,-268 250,-268 250,-100 250,-62.926 207.076,-37.4651 182.596,-25.9591"/>
<text text-anchor="middle" x="258" y="-181.5" font-family="sans-serif" font-size="10.00">100</text>
</g>
<!-- 3&#45;&#45;4 -->
<g id="edge10" class="edge"><title>3&#45;&#45;4</title>
<path fill="none" stroke="black" d="M129.438,-253.931C122.656,-247.294 114.219,-238.838 107,-231 97.2115,-220.372 86.6433,-207.835 78.9804,-198.536"/>
<text text-anchor="middle" x="115" y="-223" font-family="sans-serif" font-size="10.00">100</text>
</g>
<!-- 3&#45;&#45;5 -->
<g id="edge11" class="edge"><title>3&#45;&#45;5</title>
<path fill="none" stroke="black" d="M139.728,-249.067C135.513,-217.641 126.523,-150.629 122.292,-119.087"/>
<text text-anchor="middle" x="141" y="-181.5" font-family="sans-serif" font-size="10.00">100</text>
</g>
<!-- 3&#45;&#45;6 -->
<g id="edge12" class="edge"><title>3&#45;&#45;6</title>
<path fill="none" stroke="black" d="M146.337,-249.362C147.701,-243.585 149.087,-237.04 150,-231 160.868,-159.104 164.484,-72.3184 165.574,-36.1347"/>
<text text-anchor="middle" x="168" y="-140" font-family="sans-serif" font-size="10.00">100</text>
</g>
<!-- 4&#45;&#45;5 -->
<g id="edge13" class="edge"><title>4&#45;&#45;5</title>
<path fill="none" stroke="black" d="M75.2768,-167.244C79.7024,-158.158 85.7024,-146.658 92,-137 96.9303,-129.439 103.142,-121.544 108.461,-115.17"/>
<text text-anchor="middle" x="100" y="-140" font-family="sans-serif" font-size="10.00">100</text>
</g>
<!-- 4&#45;&#45;6 -->
<g id="edge14" class="edge"><title>4&#45;&#45;6</title>
<path fill="none" stroke="black" d="M65.4714,-166.177C63.1854,-145.23 62.1401,-109.04 77,-83 93.4128,-54.2385 128.63,-35.0083 149.507,-25.6398"/>
<text text-anchor="middle" x="85" y="-98.5" font-family="sans-serif" font-size="10.00">100</text>
</g>
<!-- 5&#45;&#45;6 -->
<g id="edge15" class="edge"><title>5&#45;&#45;6</title>
<path fill="none" stroke="black" d="M124.207,-83.1725C126.858,-74.1666 130.775,-63.0901 136,-54 140.706,-45.8125 147.448,-37.7367 153.348,-31.4091"/>
<text text-anchor="middle" x="144" y="-57" font-family="sans-serif" font-size="10.00">100</text>
</g>
</g>
</svg>
